<?xml version="1.0" encoding="UTF-8" standalone="no"?>
<svg
   xmlns:dc="http://purl.org/dc/elements/1.1/"
   xmlns:cc="http://creativecommons.org/ns#"
   xmlns:rdf="http://www.w3.org/1999/02/22-rdf-syntax-ns#"
   xmlns:svg="http://www.w3.org/2000/svg"
   xmlns="http://www.w3.org/2000/svg"
   xmlns:sodipodi="http://sodipodi.sourceforge.net/DTD/sodipodi-0.dtd"
   xmlns:inkscape="http://www.inkscape.org/namespaces/inkscape"
   width="483.77954"
   height="483.77954"
   viewBox="0 0 128 128"
   version="1.1"
   id="svg8"
   inkscape:version="0.92.4 (5da689c313, 2019-01-14)"
   sodipodi:docname="logo.svg"
   inkscape:export-filename="/home/kirang/Documents/code/ocaml/activitypub-server/resources/logo-1024.png"
   inkscape:export-xdpi="203.2"
   inkscape:export-ydpi="203.2">
  <title
     id="title1020">OCamlot Logo</title>
  <defs
     id="defs2" />
  <sodipodi:namedview
     id="base"
     pagecolor="#ffffff"
     bordercolor="#666666"
     borderopacity="1.0"
     inkscape:pageopacity="0.0"
     inkscape:pageshadow="2"
     inkscape:zoom="0.1767767"
     inkscape:cx="-687.54942"
     inkscape:cy="-347.82002"
     inkscape:document-units="mm"
     inkscape:current-layer="g862"
     inkscape:document-rotation="0"
     showgrid="false"
     inkscape:snap-intersection-paths="true"
     inkscape:object-paths="true"
     inkscape:snap-midpoints="false"
     inkscape:snap-smooth-nodes="false"
     inkscape:object-nodes="true"
     inkscape:snap-nodes="false"
     inkscape:pagecheckerboard="true"
     inkscape:window-width="1920"
     inkscape:window-height="1049"
     inkscape:window-x="0"
     inkscape:window-y="31"
     inkscape:window-maximized="1"
     units="px"
     fit-margin-top="0"
     fit-margin-left="0"
     fit-margin-right="0"
     fit-margin-bottom="0"
     lock-margins="true" />
  <metadata
     id="metadata5">
    <rdf:RDF>
      <cc:Work
         rdf:about="">
        <dc:format>image/svg+xml</dc:format>
        <dc:type
           rdf:resource="http://purl.org/dc/dcmitype/StillImage" />
        <dc:title>OCamlot Logo</dc:title>
        <cc:license
           rdf:resource="http://creativecommons.org/licenses/by-sa/4.0/" />
        <dc:date>2022-03-07</dc:date>
        <dc:creator>
          <cc:Agent>
            <dc:title>Kiran Gopinathan</dc:title>
          </cc:Agent>
        </dc:creator>
      </cc:Work>
      <cc:License
         rdf:about="http://creativecommons.org/licenses/by-sa/4.0/">
        <cc:permits
           rdf:resource="http://creativecommons.org/ns#Reproduction" />
        <cc:permits
           rdf:resource="http://creativecommons.org/ns#Distribution" />
        <cc:requires
           rdf:resource="http://creativecommons.org/ns#Notice" />
        <cc:requires
           rdf:resource="http://creativecommons.org/ns#Attribution" />
        <cc:permits
           rdf:resource="http://creativecommons.org/ns#DerivativeWorks" />
        <cc:requires
           rdf:resource="http://creativecommons.org/ns#ShareAlike" />
      </cc:License>
    </rdf:RDF>
  </metadata>
  <g
     inkscape:groupmode="layer"
     id="layer11"
     inkscape:label="background"
     transform="translate(26.753679,3.1805072)"
     style="display:none">
    <rect
       style="fill:#ffffff;fill-opacity:1;stroke:none;stroke-width:0.941999;stroke-linecap:round;stroke-linejoin:round;stroke-miterlimit:4;stroke-dasharray:none;stroke-opacity:1;paint-order:stroke fill markers"
       id="rect1044"
       width="128"
       height="128"
       x="-26.753679"
       y="-3.1805072" />
  </g>
  <g
     inkscape:label="Body"
     inkscape:groupmode="layer"
     id="layer1"
     style="display:inline"
     transform="translate(-30.377717,-26.877085)" />
  <g
     inkscape:groupmode="layer"
     id="layer10"
     inkscape:label="Character"
     style="display:inline"
     transform="translate(-30.377717,-26.877085)" />
  <g
     inkscape:groupmode="layer"
     id="layer2"
     inkscape:label="Neck"
     style="display:inline"
     transform="translate(-30.377717,-26.877085)" />
  <g
     inkscape:groupmode="layer"
     id="layer3"
     inkscape:label="Head"
     style="display:inline"
     transform="translate(-30.377717,-26.877085)" />
  <g
     id="g862"
     transform="translate(1.780192e-6,1.7801921e-6)">
    <ellipse
       style="fill:#002a32;stroke-width:0.6502316;paint-order:markers fill stroke"
       id="path824"
       cx="64"
       cy="64"
       rx="60.654144"
       ry="59.112087" />
    <g
       transform="matrix(1.4148576,0,0,1.4148576,-29.990472,-26.286303)"
       id="g853">
      <path
         inkscape:connector-curvature="0"
         d="m 45.401921,63.137263 c -0.0043,0.295267 -0.01188,0.587274 -0.01188,0.886769 0,8.887704 1.894041,15.915765 5.681821,21.0845 3.817147,5.168736 8.955297,7.753014 15.41508,7.753014 2.347016,0 4.514625,-0.342968 6.50503,-1.02526 l -9.383924,-8.733832 v -8.088395 l -9.30538,-11.876796 z m 42.083217,0.08475 -5.788276,0.1881 -8.464601,13.43174 6.245098,6.188252 h 3.699 c 2.879418,-4.921919 4.319632,-11.257047 4.319632,-19.006074 0,-0.270872 -0.0074,-0.534606 -0.01085,-0.802018 z m 11.000364,8.930204 c -0.517665,3.941627 -1.432176,7.561706 -2.742986,10.860317 l 1.631424,-0.0083 2.394688,-4.322215 4.621422,0.0021 z m -63.640043,2.822567 -8.332825,11.348143 -6.057511,9.404593 9.568924,-6.500895 7.890475,6.526734 h 7.931298 c -1.08608,-0.974606 -2.119476,-2.043131 -3.098001,-3.210139 -3.96898,-4.758669 -6.6016,-10.616147 -7.90236,-17.568436 z"
         style="display:inline;fill:#ff7800;stroke-width:0.34546643;stroke-linecap:round;stroke-linejoin:round;paint-order:stroke fill markers"
         id="path843" />
      <path
         inkscape:connector-curvature="0"
         d="m 66.489006,25.733864 c -9.666438,0 -17.399243,3.475225 -23.1991,10.425202 -5.769176,6.917039 -8.653738,16.205329 -8.653738,27.865482 0,11.438948 2.778403,20.593992 8.330758,27.468089 l 15.17065,0.993738 C 55.140897,91.146986 52.553788,89.00612 50.37836,86.060413 46.419725,80.658535 44.440737,73.313143 44.440737,64.024548 c 0,-9.321535 1.978988,-16.683077 5.937623,-22.084955 3.989324,-5.401879 9.359482,-8.102865 16.110646,-8.102865 6.751161,0 12.090709,2.700986 16.018658,8.102865 3.958638,5.401878 5.938139,12.76342 5.938139,22.084955 0,7.655573 -1.345832,13.990193 -4.034896,19.005558 h 7.731313 l 2.754871,-0.01344 c 2.234819,-5.42486 3.353281,-11.755429 3.353281,-18.992122 0,-11.660153 -2.884559,-20.948443 -8.653735,-27.865482 C 83.827464,29.209084 76.124753,25.733858 66.489006,25.733858 Z m 7.462591,67.116832 c -2.259152,0.87435 -4.746471,1.312579 -7.462591,1.312582 -2.684841,-3e-6 -5.150488,-0.428792 -7.398517,-1.283126 L 58.820222,97.66022 48.645133,96.90833 c 4.949568,3.57191 10.897534,5.35781 17.843873,5.35781 7.302098,0 13.492977,-1.98803 18.574575,-5.960359 l -7.327717,0.120923 v -0.04496 l -0.01394,0.02222 z"
         style="font-style:normal;font-weight:normal;font-size:97.66739655px;line-height:1.25;font-family:sans-serif;letter-spacing:0px;word-spacing:0px;display:inline;fill:#a0ddff;fill-opacity:1;stroke:none;stroke-width:0.94199866;stroke-miterlimit:4;stroke-dasharray:none;stroke-opacity:1"
         id="text990" />
      <path
         inkscape:connector-curvature="0"
         sodipodi:nodetypes="cccccccccccccccc"
         d="m 64.203357,50.640868 v 31.953607 l 13.93903,13.136151 0.0137,-0.0222 v 0.045 h 10.01157 l 12.892913,0.0977 6.48431,-13.102561 -1.93241,-3.439583 -5.46166,-0.0026 -2.443153,4.5003 -5.33695,0.02687 h -13.24918 l -7.44,-7.523617 V 50.640802 Z"
         style="display:inline;fill:#f07c0e;stroke-width:0.355737;stroke-linecap:round;stroke-linejoin:round;paint-order:stroke fill markers"
         id="rect857" />
      <path
         inkscape:connector-curvature="0"
         sodipodi:nodetypes="ccccccccccccccc"
         d="m 76.085317,45.833484 -4.59093,0.501261 h -10.16579 l -1.961121,4.828646 H 49.322093 v 7.442957 l 1.825729,-2.231906 2.727483,2.231906 0.913638,0.661458 h 5.3e-4 15.390794 c 0.47301,0.301963 0.94602,0.603925 1.41903,0.905888 l 2.02933,-2.030367 v -8.492506 z"
         style="display:inline;fill:#f07c0e;stroke-width:0.245222;stroke-linecap:round;stroke-linejoin:round;paint-order:stroke fill markers"
         id="rect865" />
      <path
         inkscape:connector-curvature="0"
         sodipodi:nodetypes="cccccc"
         d="m 30.023864,89.226802 7.89056,6.526555 20.393169,1.31879 0.263549,-4.083991 -20.420457,-1.318784 z"
         style="fill:#f07c0e;fill-opacity:1;stroke-width:0.40000001;stroke-linecap:round;stroke-linejoin:round;paint-order:stroke fill markers"
         id="rect944" />
    </g>
  </g>
</svg>
